<svg data-v-fde0c5aa="" xmlns="http://www.w3.org/2000/svg" viewBox="0 0 300 300" class="iconLeftSlogan"><!----><defs data-v-fde0c5aa=""><!----></defs><rect data-v-fde0c5aa="" fill="#F47973" x="0" y="0" width="300px" height="300px" class="logo-background-square"></rect><defs data-v-fde0c5aa=""><!----></defs><g data-v-fde0c5aa="" id="f21f831c-d9cf-4eb3-b8a0-bfdbae4b2e39" fill="#10143A" transform="matrix(1.3381968832181288,0,0,1.3381968832181288,78.59403784593295,126.02922382452849)"><path d="M4.17 14.11L4.17 14.11Q3.15 14.11 2.39 13.79L2.39 13.79L2.39 13.79Q1.62 13.47 1.21 12.87L1.21 12.87L1.21 12.87Q0.80 12.28 0.80 11.49L0.80 11.49L0.80 11.10L0.80 11.10Q0.80 10.92 0.98 10.92L0.98 10.92L1.58 10.92L1.58 10.92Q1.76 10.92 1.76 11.10L1.76 11.10L1.76 11.44L1.76 11.44Q1.76 12.24 2.44 12.74L2.44 12.74L2.44 12.74Q3.11 13.24 4.24 13.24L4.24 13.24L4.24 13.24Q5.32 13.24 5.88 12.79L5.88 12.79L5.88 12.79Q6.44 12.33 6.44 11.58L6.44 11.58L6.44 11.58Q6.44 11.09 6.18 10.74L6.18 10.74L6.18 10.74Q5.92 10.39 5.39 10.08L5.39 10.08L5.39 10.08Q4.86 9.77 3.86 9.37L3.86 9.37L3.86 9.37Q2.81 8.95 2.23 8.63L2.23 8.63L2.23 8.63Q1.65 8.32 1.29 7.82L1.29 7.82L1.29 7.82Q0.94 7.32 0.94 6.57L0.94 6.57L0.94 6.57Q0.94 5.39 1.76 4.74L1.76 4.74L1.76 4.74Q2.58 4.09 4.02 4.09L4.02 4.09L4.02 4.09Q5.56 4.09 6.45 4.82L6.45 4.82L6.45 4.82Q7.35 5.54 7.35 6.75L7.35 6.75L7.35 7.01L7.35 7.01Q7.35 7.20 7.17 7.20L7.17 7.20L6.55 7.20L6.55 7.20Q6.37 7.20 6.37 7.01L6.37 7.01L6.37 6.80L6.37 6.80Q6.37 5.99 5.74 5.47L5.74 5.47L5.74 5.47Q5.11 4.96 3.96 4.96L3.96 4.96L3.96 4.96Q2.97 4.96 2.44 5.36L2.44 5.36L2.44 5.36Q1.92 5.77 1.92 6.54L1.92 6.54L1.92 6.54Q1.92 7.04 2.18 7.37L2.18 7.37L2.18 7.37Q2.44 7.70 2.92 7.95L2.92 7.95L2.92 7.95Q3.40 8.19 4.40 8.58L4.40 8.58L4.40 8.58Q5.42 9.00 6.05 9.37L6.05 9.37L6.05 9.37Q6.68 9.73 7.06 10.25L7.06 10.25L7.06 10.25Q7.43 10.78 7.43 11.54L7.43 11.54L7.43 11.54Q7.43 12.70 6.57 13.40L6.57 13.40L6.57 13.40Q5.71 14.11 4.17 14.11L4.17 14.11ZM12.04 14.11L12.04 14.11Q11.02 14.11 10.30 13.59L10.30 13.59L10.30 13.59Q9.58 13.08 9.30 12.17L9.30 12.17L9.30 12.17Q9.10 11.52 9.10 10.44L9.10 10.44L9.10 10.44Q9.10 9.38 9.28 8.74L9.28 8.74L9.28 8.74Q9.56 7.84 10.28 7.32L10.28 7.32L10.28 7.32Q11.00 6.80 12.04 6.80L12.04 6.80L12.04 6.80Q13.05 6.80 13.77 7.32L13.77 7.32L13.77 7.32Q14.49 7.84 14.76 8.72L14.76 8.72L14.76 8.72Q14.95 9.39 14.95 10.44L14.95 10.44L14.95 10.44Q14.95 11.52 14.76 12.17L14.76 12.17L14.76 12.17Q14.48 13.08 13.76 13.59L13.76 13.59L13.76 13.59Q13.03 14.11 12.04 14.11L12.04 14.11ZM12.04 13.24L12.04 13.24Q12.71 13.24 13.19 12.87L13.19 12.87L13.19 12.87Q13.66 12.50 13.83 11.87L13.83 11.87L13.83 11.87Q13.94 11.42 13.94 10.46L13.94 10.46L13.94 10.46Q13.94 9.45 13.83 9.04L13.83 9.04L13.83 9.04Q13.68 8.41 13.20 8.04L13.20 8.04L13.20 8.04Q12.71 7.67 12.01 7.67L12.01 7.67L12.01 7.67Q11.34 7.67 10.86 8.04L10.86 8.04L10.86 8.04Q10.39 8.41 10.22 9.04L10.22 9.04L10.22 9.04Q10.11 9.45 10.11 10.46L10.11 10.46L10.11 10.46Q10.11 11.47 10.22 11.87L10.22 11.87L10.22 11.87Q10.37 12.50 10.86 12.87L10.86 12.87L10.86 12.87Q11.34 13.24 12.04 13.24L12.04 13.24ZM21.25 7.10L21.25 7.10Q21.25 6.92 21.43 6.92L21.43 6.92L22.06 6.92L22.06 6.92Q22.25 6.92 22.25 7.10L22.25 7.10L22.25 13.82L22.25 13.82Q22.25 14 22.06 14L22.06 14L21.43 14L21.43 14Q21.25 14 21.25 13.82L21.25 13.82L21.25 13.29L21.25 13.29Q21.25 13.24 21.22 13.23L21.22 13.23L21.22 13.23Q21.20 13.22 21.17 13.26L21.17 13.26L21.17 13.26Q20.57 14.10 19.32 14.10L19.32 14.10L19.32 14.10Q18.65 14.10 18.08 13.82L18.08 13.82L18.08 13.82Q17.51 13.55 17.19 13.03L17.19 13.03L17.19 13.03Q16.86 12.52 16.86 11.79L16.86 11.79L16.86 7.10L16.86 7.10Q16.86 6.92 17.04 6.92L17.04 6.92L17.67 6.92L17.67 6.92Q17.85 6.92 17.85 7.10L17.85 7.10L17.85 11.49L17.85 11.49Q17.85 12.29 18.30 12.76L18.30 12.76L18.30 12.76Q18.75 13.23 19.52 13.23L19.52 13.23L19.52 13.23Q20.31 13.23 20.78 12.75L20.78 12.75L20.78 12.75Q21.25 12.28 21.25 11.49L21.25 11.49L21.25 7.10ZM27.65 7.56L27.65 7.56Q27.65 7.74 27.47 7.74L27.47 7.74L25.94 7.74L25.94 7.74Q25.87 7.74 25.87 7.81L25.87 7.81L25.87 11.90L25.87 11.90Q25.87 12.57 26.17 12.85L26.17 12.85L26.17 12.85Q26.47 13.12 27.12 13.12L27.12 13.12L27.43 13.12L27.43 13.12Q27.61 13.12 27.61 13.30L27.61 13.30L27.61 13.79L27.61 13.79Q27.61 13.97 27.43 13.99L27.43 13.99L26.95 13.99L26.95 13.99Q25.94 13.99 25.42 13.61L25.42 13.61L25.42 13.61Q24.91 13.23 24.91 12.21L24.91 12.21L24.91 7.81L24.91 7.81Q24.91 7.74 24.84 7.74L24.84 7.74L24.04 7.74L24.04 7.74Q23.86 7.74 23.86 7.56L23.86 7.56L23.86 7.10L23.86 7.10Q23.86 6.92 24.04 6.92L24.04 6.92L24.84 6.92L24.84 6.92Q24.91 6.92 24.91 6.85L24.91 6.85L24.91 5.28L24.91 5.28Q24.91 5.10 25.09 5.10L25.09 5.10L25.69 5.10L25.69 5.10Q25.87 5.10 25.87 5.28L25.87 5.28L25.87 6.85L25.87 6.85Q25.87 6.92 25.94 6.92L25.94 6.92L27.47 6.92L27.47 6.92Q27.65 6.92 27.65 7.10L27.65 7.10L27.65 7.56ZM32.51 6.82L32.51 6.82Q33.61 6.82 34.28 7.48L34.28 7.48L34.28 7.48Q34.94 8.13 34.94 9.24L34.94 9.24L34.94 13.82L34.94 13.82Q34.94 14 34.76 14L34.76 14L34.13 14L34.13 14Q33.95 14 33.95 13.82L33.95 13.82L33.95 9.44L33.95 9.44Q33.95 8.65 33.49 8.17L33.49 8.17L33.49 8.17Q33.03 7.69 32.28 7.69L32.28 7.69L32.28 7.69Q31.57 7.69 31.10 8.09L31.10 8.09L31.10 8.09Q30.63 8.50 30.56 9.16L30.56 9.16L30.56 13.82L30.56 13.82Q30.56 14 30.38 14L30.38 14L29.75 14L29.75 14Q29.57 14 29.57 13.82L29.57 13.82L29.57 4.38L29.57 4.38Q29.57 4.20 29.75 4.20L29.75 4.20L30.38 4.20L30.38 4.20Q30.56 4.20 30.56 4.38L30.56 4.38L30.56 7.62L30.56 7.62Q30.56 7.66 30.59 7.68L30.59 7.68L30.59 7.68Q30.62 7.70 30.63 7.66L30.63 7.66L30.63 7.66Q31.25 6.82 32.51 6.82L32.51 6.82ZM46.45 4.89L46.45 4.89Q46.45 5.07 46.27 5.07L46.27 5.07L41.17 5.07L41.17 5.07Q41.10 5.07 41.10 5.14L41.10 5.14L41.10 8.57L41.10 8.57Q41.10 8.64 41.17 8.64L41.17 8.64L44.73 8.64L44.73 8.64Q44.91 8.64 44.91 8.82L44.91 8.82L44.91 9.32L44.91 9.32Q44.91 9.51 44.73 9.51L44.73 9.51L41.17 9.51L41.17 9.51Q41.10 9.51 41.10 9.58L41.10 9.58L41.10 13.06L41.10 13.06Q41.10 13.13 41.17 13.13L41.17 13.13L46.27 13.13L46.27 13.13Q46.45 13.13 46.45 13.31L46.45 13.31L46.45 13.82L46.45 13.82Q46.45 14 46.27 14L46.27 14L40.29 14L40.29 14Q40.11 14 40.11 13.82L40.11 13.82L40.11 4.38L40.11 4.38Q40.11 4.20 40.29 4.20L40.29 4.20L46.27 4.20L46.27 4.20Q46.45 4.20 46.45 4.38L46.45 4.38L46.45 4.89ZM51.32 6.82L51.32 6.82Q52.43 6.82 53.09 7.48L53.09 7.48L53.09 7.48Q53.76 8.13 53.76 9.24L53.76 9.24L53.76 13.82L53.76 13.82Q53.76 14 53.58 14L53.58 14L52.95 14L52.95 14Q52.77 14 52.77 13.82L52.77 13.82L52.77 9.44L52.77 9.44Q52.77 8.65 52.30 8.17L52.30 8.17L52.30 8.17Q51.84 7.69 51.10 7.69L51.10 7.69L51.10 7.69Q50.39 7.69 49.92 8.09L49.92 8.09L49.92 8.09Q49.45 8.50 49.38 9.16L49.38 9.16L49.38 13.82L49.38 13.82Q49.38 14 49.20 14L49.20 14L48.57 14L48.57 14Q48.38 14 48.38 13.82L48.38 13.82L48.38 7.10L48.38 7.10Q48.38 6.92 48.57 6.92L48.57 6.92L49.20 6.92L49.20 6.92Q49.38 6.92 49.38 7.10L49.38 7.10L49.38 7.62L49.38 7.62Q49.38 7.66 49.41 7.68L49.41 7.68L49.41 7.68Q49.43 7.70 49.45 7.66L49.45 7.66L49.45 7.66Q50.06 6.82 51.32 6.82L51.32 6.82ZM60.28 4.38L60.28 4.38Q60.28 4.20 60.47 4.20L60.47 4.20L61.10 4.20L61.10 4.20Q61.28 4.20 61.28 4.38L61.28 4.38L61.28 13.82L61.28 13.82Q61.28 14 61.10 14L61.10 14L60.47 14L60.47 14Q60.28 14 60.28 13.82L60.28 13.82L60.28 13.29L60.28 13.29Q60.28 13.24 60.26 13.24L60.26 13.24L60.26 13.24Q60.23 13.23 60.20 13.26L60.20 13.26L60.20 13.26Q59.89 13.66 59.44 13.89L59.44 13.89L59.44 13.89Q58.98 14.11 58.42 14.11L58.42 14.11L58.42 14.11Q57.44 14.11 56.78 13.61L56.78 13.61L56.78 13.61Q56.11 13.10 55.86 12.24L55.86 12.24L55.86 12.24Q55.66 11.61 55.66 10.46L55.66 10.46L55.66 10.46Q55.66 9.30 55.83 8.72L55.83 8.72L55.83 8.72Q56.08 7.83 56.76 7.31L56.76 7.31L56.76 7.31Q57.43 6.80 58.42 6.80L58.42 6.80L58.42 6.80Q58.97 6.80 59.43 7.02L59.43 7.02L59.43 7.02Q59.89 7.24 60.20 7.64L60.20 7.64L60.20 7.64Q60.23 7.69 60.26 7.67L60.26 7.67L60.26 7.67Q60.28 7.66 60.28 7.62L60.28 7.62L60.28 4.38ZM60.02 12.17L60.02 12.17Q60.14 11.89 60.20 11.51L60.20 11.51L60.20 11.51Q60.26 11.13 60.26 10.46L60.26 10.46L60.26 10.46Q60.26 9.79 60.20 9.40L60.20 9.40L60.20 9.40Q60.14 9.02 60.00 8.72L60.00 8.72L60.00 8.72Q59.84 8.25 59.45 7.96L59.45 7.96L59.45 7.96Q59.07 7.67 58.53 7.67L58.53 7.67L58.53 7.67Q57.97 7.67 57.57 7.95L57.57 7.95L57.57 7.95Q57.16 8.23 56.98 8.69L56.98 8.69L56.98 8.69Q56.81 9.00 56.73 9.39L56.73 9.39L56.73 9.39Q56.66 9.77 56.66 10.46L56.66 10.46L56.66 10.46Q56.66 11.12 56.71 11.49L56.71 11.49L56.71 11.49Q56.77 11.86 56.91 12.15L56.91 12.15L56.91 12.15Q57.08 12.66 57.50 12.95L57.50 12.95L57.50 12.95Q57.93 13.24 58.52 13.24L58.52 13.24L58.52 13.24Q59.08 13.24 59.46 12.95L59.46 12.95L59.46 12.95Q59.84 12.66 60.02 12.17L60.02 12.17ZM68.42 14L68.42 14Q68.26 14 68.22 13.85L68.22 13.85L65.56 4.41L65.55 4.35L65.55 4.35Q65.55 4.20 65.72 4.20L65.72 4.20L66.40 4.20L66.40 4.20Q66.56 4.20 66.60 4.35L66.60 4.35L68.70 11.94L68.70 11.94Q68.71 11.98 68.74 11.98L68.74 11.98L68.74 11.98Q68.77 11.98 68.78 11.94L68.78 11.94L70.74 4.35L70.74 4.35Q70.78 4.20 70.95 4.20L70.95 4.20L71.62 4.20L71.62 4.20Q71.78 4.20 71.82 4.35L71.82 4.35L73.86 11.96L73.86 11.96Q73.88 12.00 73.91 12.00L73.91 12.00L73.91 12.00Q73.93 12.00 73.95 11.96L73.95 11.96L76.05 4.35L76.05 4.35Q76.09 4.20 76.24 4.20L76.24 4.20L76.89 4.20L76.89 4.20Q76.99 4.20 77.03 4.26L77.03 4.26L77.03 4.26Q77.07 4.31 77.04 4.41L77.04 4.41L74.42 13.85L74.42 13.85Q74.38 14 74.23 14L74.23 14L73.56 14L73.56 14Q73.39 14 73.35 13.85L73.35 13.85L71.33 6.06L71.33 6.06Q71.32 6.02 71.29 6.02L71.29 6.02L71.29 6.02Q71.26 6.02 71.25 6.06L71.25 6.06L69.26 13.85L69.26 13.85Q69.22 14 69.05 14L69.05 14L68.42 14ZM81.28 13.26L81.28 13.26Q81.91 13.24 82.37 12.97L82.37 12.97L82.37 12.97Q82.82 12.70 83.08 12.21L83.08 12.21L83.08 12.21Q83.10 12.14 83.17 12.11L83.17 12.11L83.17 12.11Q83.24 12.08 83.31 12.12L83.31 12.12L83.72 12.35L83.72 12.35Q83.89 12.45 83.80 12.59L83.80 12.59L83.80 12.59Q83.47 13.29 82.80 13.70L82.80 13.70L82.80 13.70Q82.12 14.11 81.20 14.11L81.20 14.11L81.20 14.11Q80.22 14.11 79.55 13.65L79.55 13.65L79.55 13.65Q78.88 13.19 78.58 12.36L78.58 12.36L78.58 12.36Q78.32 11.66 78.32 10.43L78.32 10.43L78.32 10.43Q78.32 9.83 78.34 9.47L78.34 9.47L78.34 9.47Q78.36 9.11 78.44 8.81L78.44 8.81L78.44 8.81Q78.68 7.90 79.40 7.35L79.40 7.35L79.40 7.35Q80.12 6.80 81.14 6.80L81.14 6.80L81.14 6.80Q82.36 6.80 83.05 7.43L83.05 7.43L83.05 7.43Q83.75 8.06 83.94 9.21L83.94 9.21L83.94 9.21Q84.03 9.66 84.03 10.61L84.03 10.61L84.03 10.61Q84.03 10.79 83.85 10.79L83.85 10.79L79.37 10.79L79.37 10.79Q79.30 10.79 79.30 10.86L79.30 10.86L79.30 10.86Q79.30 11.56 79.38 11.89L79.38 11.89L79.38 11.89Q79.53 12.52 80.03 12.89L80.03 12.89L80.03 12.89Q80.53 13.26 81.28 13.26L81.28 13.26ZM81.14 7.67L81.14 7.67Q80.44 7.67 80.00 8.03L80.00 8.03L80.00 8.03Q79.55 8.39 79.41 8.99L79.41 8.99L79.41 8.99Q79.32 9.27 79.30 9.94L79.30 9.94L79.30 9.94Q79.30 10.01 79.37 10.01L79.37 10.01L82.96 10.01L82.96 10.01Q83.03 10.01 83.03 9.94L83.03 9.94L83.03 9.94Q83.01 9.32 82.95 9.04L82.95 9.04L82.95 9.04Q82.80 8.41 82.33 8.04L82.33 8.04L82.33 8.04Q81.86 7.67 81.14 7.67L81.14 7.67ZM91.45 8.72L91.45 8.72Q91.62 9.30 91.62 10.46L91.62 10.46L91.62 10.46Q91.62 11.61 91.42 12.24L91.42 12.24L91.42 12.24Q91.17 13.10 90.50 13.61L90.50 13.61L90.50 13.61Q89.84 14.11 88.86 14.11L88.86 14.11L88.86 14.11Q88.30 14.11 87.84 13.89L87.84 13.89L87.84 13.89Q87.39 13.66 87.08 13.26L87.08 13.26L87.08 13.26Q87.05 13.23 87.02 13.24L87.02 13.24L87.02 13.24Q87.00 13.24 87.00 13.29L87.00 13.29L87.00 13.82L87.00 13.82Q87.00 14 86.81 14L86.81 14L86.18 14L86.18 14Q86.00 14 86.00 13.82L86.00 13.82L86.00 4.38L86.00 4.38Q86.00 4.20 86.18 4.20L86.18 4.20L86.81 4.20L86.81 4.20Q87.00 4.20 87.00 4.38L87.00 4.38L87.00 7.62L87.00 7.62Q87.00 7.66 87.02 7.67L87.02 7.67L87.02 7.67Q87.05 7.69 87.08 7.64L87.08 7.64L87.08 7.64Q87.39 7.24 87.85 7.02L87.85 7.02L87.85 7.02Q88.31 6.80 88.86 6.80L88.86 6.80L88.86 6.80Q89.85 6.80 90.52 7.31L90.52 7.31L90.52 7.31Q91.20 7.83 91.45 8.72L91.45 8.72ZM90.37 12.15L90.37 12.15Q90.51 11.86 90.57 11.49L90.57 11.49L90.57 11.49Q90.62 11.12 90.62 10.46L90.62 10.46L90.62 10.46Q90.62 9.77 90.54 9.39L90.54 9.39L90.54 9.39Q90.47 9.00 90.30 8.69L90.30 8.69L90.30 8.69Q90.12 8.23 89.71 7.95L89.71 7.95L89.71 7.95Q89.31 7.67 88.75 7.67L88.75 7.67L88.75 7.67Q88.21 7.67 87.83 7.96L87.83 7.96L87.83 7.96Q87.44 8.25 87.28 8.72L87.28 8.72L87.28 8.72Q87.14 9.02 87.08 9.40L87.08 9.40L87.08 9.40Q87.02 9.79 87.02 10.46L87.02 10.46L87.02 10.46Q87.02 11.13 87.08 11.51L87.08 11.51L87.08 11.51Q87.14 11.89 87.26 12.17L87.26 12.17L87.26 12.17Q87.44 12.66 87.82 12.95L87.82 12.95L87.82 12.95Q88.20 13.24 88.76 13.24L88.76 13.24L88.76 13.24Q89.35 13.24 89.77 12.95L89.77 12.95L89.77 12.95Q90.20 12.66 90.37 12.15L90.37 12.15ZM96.77 14L96.77 14Q96.59 14 96.59 13.82L96.59 13.82L96.59 4.38L96.59 4.38Q96.59 4.20 96.77 4.20L96.77 4.20L100.03 4.20L100.03 4.20Q101.42 4.20 102.23 4.93L102.23 4.93L102.23 4.93Q103.05 5.66 103.05 6.90L103.05 6.90L103.05 11.30L103.05 11.30Q103.05 12.54 102.23 13.27L102.23 13.27L102.23 13.27Q101.42 14 100.03 14L100.03 14L96.77 14ZM97.58 13.06L97.58 13.06Q97.58 13.13 97.65 13.13L97.65 13.13L100.07 13.13L100.07 13.13Q100.98 13.13 101.52 12.60L101.52 12.60L101.52 12.60Q102.06 12.07 102.06 11.17L102.06 11.17L102.06 7.04L102.06 7.04Q102.06 6.13 101.53 5.60L101.53 5.60L101.53 5.60Q101.00 5.07 100.07 5.07L100.07 5.07L97.65 5.07L97.65 5.07Q97.58 5.07 97.58 5.14L97.58 5.14L97.58 13.06ZM107.80 13.26L107.80 13.26Q108.43 13.24 108.88 12.97L108.88 12.97L108.88 12.97Q109.34 12.70 109.59 12.21L109.59 12.21L109.59 12.21Q109.62 12.14 109.69 12.11L109.69 12.11L109.69 12.11Q109.76 12.08 109.83 12.12L109.83 12.12L110.24 12.35L110.24 12.35Q110.40 12.45 110.32 12.59L110.32 12.59L110.32 12.59Q109.98 13.29 109.31 13.70L109.31 13.70L109.31 13.70Q108.64 14.11 107.72 14.11L107.72 14.11L107.72 14.11Q106.74 14.11 106.06 13.65L106.06 13.65L106.06 13.65Q105.39 13.19 105.10 12.36L105.10 12.36L105.10 12.36Q104.83 11.66 104.83 10.43L104.83 10.43L104.83 10.43Q104.83 9.83 104.85 9.47L104.85 9.47L104.85 9.47Q104.87 9.11 104.96 8.81L104.96 8.81L104.96 8.81Q105.20 7.90 105.92 7.35L105.92 7.35L105.92 7.35Q106.64 6.80 107.66 6.80L107.66 6.80L107.66 6.80Q108.88 6.80 109.57 7.43L109.57 7.43L109.57 7.43Q110.26 8.06 110.46 9.21L110.46 9.21L110.46 9.21Q110.54 9.66 110.54 10.61L110.54 10.61L110.54 10.61Q110.54 10.79 110.36 10.79L110.36 10.79L105.88 10.79L105.88 10.79Q105.81 10.79 105.81 10.86L105.81 10.86L105.81 10.86Q105.81 11.56 105.90 11.89L105.90 11.89L105.90 11.89Q106.05 12.52 106.55 12.89L106.55 12.89L106.55 12.89Q107.04 13.26 107.80 13.26L107.80 13.26ZM107.66 7.67L107.66 7.67Q106.96 7.67 106.51 8.03L106.51 8.03L106.51 8.03Q106.06 8.39 105.92 8.99L105.92 8.99L105.92 8.99Q105.84 9.27 105.81 9.94L105.81 9.94L105.81 9.94Q105.81 10.01 105.88 10.01L105.88 10.01L109.48 10.01L109.48 10.01Q109.55 10.01 109.55 9.94L109.55 9.94L109.55 9.94Q109.52 9.32 109.47 9.04L109.47 9.04L109.47 9.04Q109.31 8.41 108.84 8.04L108.84 8.04L108.84 8.04Q108.37 7.67 107.66 7.67L107.66 7.67ZM114.84 14.07L114.84 14.07Q114.06 14.07 113.45 13.82L113.45 13.82L113.45 13.82Q112.84 13.57 112.51 13.15L112.51 13.15L112.51 13.15Q112.18 12.73 112.18 12.21L112.18 12.21L112.18 12.08L112.18 12.08Q112.18 11.90 112.36 11.90L112.36 11.90L112.97 11.90L112.97 11.90Q113.05 11.90 113.10 11.94L113.10 11.94L113.10 11.94Q113.15 11.97 113.15 12.03L113.15 12.03L113.15 12.15L113.15 12.15Q113.15 12.61 113.62 12.96L113.62 12.96L113.62 12.96Q114.10 13.30 114.83 13.30L114.83 13.30L114.83 13.30Q115.56 13.30 116.00 12.97L116.00 12.97L116.00 12.97Q116.45 12.64 116.45 12.14L116.45 12.14L116.45 12.14Q116.45 11.79 116.23 11.56L116.23 11.56L116.23 11.56Q116.00 11.34 115.68 11.21L115.68 11.21L115.68 11.21Q115.36 11.09 114.72 10.89L114.72 10.89L114.72 10.89Q113.93 10.67 113.43 10.44L113.43 10.44L113.43 10.44Q112.92 10.22 112.57 9.82L112.57 9.82L112.57 9.82Q112.22 9.42 112.22 8.81L112.22 8.81L112.22 8.81Q112.22 7.91 112.93 7.38L112.93 7.38L112.93 7.38Q113.64 6.85 114.79 6.85L114.79 6.85L114.79 6.85Q115.56 6.85 116.15 7.10L116.15 7.10L116.15 7.10Q116.75 7.35 117.07 7.79L117.07 7.79L117.07 7.79Q117.39 8.23 117.39 8.78L117.39 8.78L117.39 8.78Q117.39 8.96 117.21 8.96L117.21 8.96L116.63 8.96L116.63 8.96Q116.45 8.96 116.45 8.86L116.45 8.86L116.45 8.78L116.45 8.78Q116.45 8.30 116.00 7.98L116.00 7.98L116.00 7.98Q115.54 7.66 114.77 7.66L114.77 7.66L114.77 7.66Q114.06 7.66 113.62 7.95L113.62 7.95L113.62 7.95Q113.19 8.23 113.19 8.74L113.19 8.74L113.19 8.74Q113.19 9.21 113.60 9.46L113.60 9.46L113.60 9.46Q114.02 9.72 114.90 9.97L114.90 9.97L114.90 9.97Q115.71 10.19 116.21 10.40L116.21 10.40L116.21 10.40Q116.72 10.61 117.08 11.02L117.08 11.02L117.08 11.02Q117.45 11.42 117.45 12.07L117.45 12.07L117.45 12.07Q117.45 12.98 116.74 13.52L116.74 13.52L116.74 13.52Q116.03 14.07 114.84 14.07L114.84 14.07ZM119.87 5.64L119.87 5.64Q119.53 5.64 119.32 5.44L119.32 5.44L119.32 5.44Q119.11 5.24 119.11 4.91L119.11 4.91L119.11 4.91Q119.11 4.59 119.32 4.40L119.32 4.40L119.32 4.40Q119.53 4.20 119.87 4.20L119.87 4.20L119.87 4.20Q120.20 4.20 120.41 4.40L120.41 4.40L120.41 4.40Q120.62 4.59 120.62 4.91L120.62 4.91L120.62 4.91Q120.62 5.24 120.41 5.44L120.41 5.44L120.41 5.44Q120.20 5.64 119.87 5.64L119.87 5.64ZM119.56 14L119.56 14Q119.38 14 119.38 13.82L119.38 13.82L119.38 7.10L119.38 7.10Q119.38 6.92 119.56 6.92L119.56 6.92L120.19 6.92L120.19 6.92Q120.37 6.92 120.37 7.10L120.37 7.10L120.37 13.82L120.37 13.82Q120.37 14 120.19 14L120.19 14L119.56 14ZM127.06 7.10L127.06 7.10Q127.06 6.92 127.25 6.92L127.25 6.92L127.88 6.92L127.88 6.92Q128.06 6.92 128.06 7.10L128.06 7.10L128.06 13.76L128.06 13.76Q128.06 15.33 127.15 16.06L127.15 16.06L127.15 16.06Q126.24 16.79 124.67 16.79L124.67 16.79L124.67 16.79Q124.38 16.79 124.22 16.77L124.22 16.77L124.22 16.77Q124.04 16.76 124.04 16.58L124.04 16.58L124.07 16.02L124.07 16.02Q124.07 15.82 124.25 15.85L124.25 15.85L124.25 15.85Q125.73 15.92 126.40 15.41L126.40 15.41L126.40 15.41Q127.06 14.91 127.06 13.73L127.06 13.73L127.06 13.24L127.06 13.24Q127.06 13.20 127.04 13.19L127.04 13.19L127.04 13.19Q127.01 13.17 126.98 13.22L126.98 13.22L126.98 13.22Q126.34 14.04 125.16 14.04L125.16 14.04L125.16 14.04Q124.25 14.04 123.54 13.55L123.54 13.55L123.54 13.55Q122.84 13.06 122.60 12.17L122.60 12.17L122.60 12.17Q122.43 11.59 122.43 10.46L122.43 10.46L122.43 10.46Q122.43 9.84 122.46 9.42L122.46 9.42L122.46 9.42Q122.50 9.00 122.61 8.67L122.61 8.67L122.61 8.67Q122.86 7.83 123.52 7.31L123.52 7.31L123.52 7.31Q124.18 6.80 125.10 6.80L125.10 6.80L125.10 6.80Q126.32 6.80 126.98 7.60L126.98 7.60L126.98 7.60Q127.01 7.64 127.04 7.63L127.04 7.63L127.04 7.63Q127.06 7.62 127.06 7.57L127.06 7.57L127.06 7.10ZM126.99 11.86L126.99 11.86Q127.04 11.65 127.05 11.34L127.05 11.34L127.05 11.34Q127.06 11.03 127.06 10.44L127.06 10.44L127.06 10.44Q127.06 9.73 127.05 9.48L127.05 9.48L127.05 9.48Q127.04 9.24 126.98 9.03L126.98 9.03L126.98 9.03Q126.87 8.44 126.43 8.06L126.43 8.06L126.43 8.06Q125.99 7.67 125.31 7.67L125.31 7.67L125.31 7.67Q124.66 7.67 124.20 8.05L124.20 8.05L124.20 8.05Q123.75 8.43 123.56 9.03L123.56 9.03L123.56 9.03Q123.42 9.48 123.42 10.43L123.42 10.43L123.42 10.43Q123.42 11.45 123.56 11.84L123.56 11.84L123.56 11.84Q123.70 12.43 124.17 12.82L124.17 12.82L124.17 12.82Q124.64 13.20 125.31 13.20L125.31 13.20L125.31 13.20Q126 13.20 126.44 12.82L126.44 12.82L126.44 12.82Q126.88 12.45 126.99 11.86L126.99 11.86ZM133.13 6.82L133.13 6.82Q134.23 6.82 134.90 7.48L134.90 7.48L134.90 7.48Q135.56 8.13 135.56 9.24L135.56 9.24L135.56 13.82L135.56 13.82Q135.56 14 135.38 14L135.38 14L134.75 14L134.75 14Q134.57 14 134.57 13.82L134.57 13.82L134.57 9.44L134.57 9.44Q134.57 8.65 134.11 8.17L134.11 8.17L134.11 8.17Q133.64 7.69 132.90 7.69L132.90 7.69L132.90 7.69Q132.19 7.69 131.72 8.09L131.72 8.09L131.72 8.09Q131.25 8.50 131.18 9.16L131.18 9.16L131.18 13.82L131.18 13.82Q131.18 14 131.00 14L131.00 14L130.37 14L130.37 14Q130.19 14 130.19 13.82L130.19 13.82L130.19 7.10L130.19 7.10Q130.19 6.92 130.37 6.92L130.37 6.92L131.00 6.92L131.00 6.92Q131.18 6.92 131.18 7.10L131.18 7.10L131.18 7.62L131.18 7.62Q131.18 7.66 131.21 7.68L131.21 7.68L131.21 7.68Q131.24 7.70 131.25 7.66L131.25 7.66L131.25 7.66Q131.87 6.82 133.13 6.82L133.13 6.82Z"></path></g><defs data-v-fde0c5aa=""><!----></defs><g data-v-fde0c5aa="" id="64592d49-58b4-4a33-a226-d14a1dd9fbdb" stroke="none" fill="#10143A" transform="matrix(0.3675492638601801,0,0,0.3675492638601801,34.95501886594709,131.6223520817426)"><path d="M57.484 24.356a8.346 8.346 0 0 0-.037-.388c2.434-2.098 3.985-5.197 3.985-8.657 0-6.305-5.129-11.433-11.434-11.433-6.306 0-11.435 5.128-11.435 11.433 0 3.458 1.549 6.555 3.981 8.653a8.43 8.43 0 0 0-.038.393c-16.417 3.463-28.78 18.06-28.78 35.493 0 20.002 16.272 36.273 36.273 36.273 20.003 0 36.274-16.271 36.274-36.273 0-17.436-12.367-32.034-28.789-35.494zm-15.26-9.044c0-4.287 3.487-7.774 7.775-7.774 4.287 0 7.775 3.487 7.775 7.774a7.738 7.738 0 0 1-1.839 5.01 7.498 7.498 0 0 0-11.876-.004 7.731 7.731 0 0 1-1.835-5.006zm10.518 75.194v-3.584a2.744 2.744 0 1 0-5.487 0v3.584c-14.789-1.314-26.6-13.123-27.913-27.91h2.737a2.745 2.745 0 0 0 0-5.488h-2.737c1.313-14.791 13.124-26.601 27.913-27.915v2.722a2.744 2.744 0 1 0 5.487 0v-2.722c14.79 1.312 26.6 13.124 27.914 27.915h-2.738a2.744 2.744 0 1 0 0 5.488h2.738c-1.314 14.789-13.124 26.597-27.914 27.91z"></path><path d="M39.343 80.205L56.134 62.76l4.519-24.226-16.787 17.445-4.523 24.226zm15.479-30.273l-2.047 10.971-5.559-3.07 7.606-7.901z"></path></g><defs data-v-fde0c5aa=""><!----></defs><g data-v-fde0c5aa="" id="7b56f233-a5f4-4675-bad2-4c158260ab7f" fill="#10143A" transform="matrix(0.3458345412177432,0,0,0.3458345412177432,79.612720185216,156.53321058416637)"><path d="M8.41 5.88L7.42 15.68L5.28 15.68L4.37 6.38L4.20 6.38L3.29 15.68L1.15 15.68L0.15 5.88L1.22 5.88L2.16 15.18L2.32 15.18L3.21 5.88L5.36 5.88L6.24 15.18L6.41 15.18L7.35 5.88L8.41 5.88ZM16.88 15.68L16.88 5.88L22.82 5.88L22.82 6.97L18.06 6.97L18.06 10.22L22.74 10.22L22.74 11.31L18.06 11.31L18.06 14.59L22.90 14.59L22.90 15.68L16.88 15.68ZM31.93 15.68L31.93 14.59L32.77 14.59L32.77 6.97L31.93 6.97L31.93 5.88L35.90 5.88L35.90 5.88Q36.60 5.88 37.13 6.08L37.13 6.08L37.13 6.08Q37.67 6.27 38.05 6.61L38.05 6.61L38.05 6.61Q38.42 6.94 38.60 7.41L38.60 7.41L38.60 7.41Q38.79 7.88 38.79 8.43L38.79 8.43L38.79 8.60L38.79 8.60Q38.79 9.00 38.67 9.34L38.67 9.34L38.67 9.34Q38.54 9.67 38.32 9.94L38.32 9.94L38.32 9.94Q38.09 10.21 37.79 10.39L37.79 10.39L37.79 10.39Q37.49 10.58 37.14 10.68L37.14 10.68L37.14 10.85L37.14 10.85Q37.84 11.05 38.32 11.60L38.32 11.60L38.32 11.60Q38.79 12.15 38.79 12.95L38.79 12.95L38.79 13.12L38.79 13.12Q38.79 13.66 38.60 14.13L38.60 14.13L38.60 14.13Q38.42 14.60 38.05 14.95L38.05 14.95L38.05 14.95Q37.67 15.29 37.13 15.48L37.13 15.48L37.13 15.48Q36.60 15.68 35.90 15.68L35.90 15.68L31.93 15.68ZM33.95 11.31L33.95 14.59L35.81 14.59L35.81 14.59Q36.64 14.59 37.16 14.17L37.16 14.17L37.16 14.17Q37.67 13.76 37.67 13.03L37.67 13.03L37.67 12.95L37.67 12.95Q37.67 12.19 37.18 11.75L37.18 11.75L37.18 11.75Q36.69 11.31 35.85 11.31L35.85 11.31L33.95 11.31ZM33.95 6.97L33.95 10.22L35.85 10.22L35.85 10.22Q36.69 10.22 37.18 9.79L37.18 9.79L37.18 9.79Q37.67 9.35 37.67 8.60L37.67 8.60L37.67 8.51L37.67 8.51Q37.67 7.80 37.16 7.38L37.16 7.38L37.16 7.38Q36.64 6.97 35.81 6.97L35.81 6.97L33.95 6.97ZM63.29 6.97L63.29 5.88L66.51 5.88L66.51 5.88Q68.33 5.88 69.17 6.75L69.17 6.75L69.17 6.75Q70.01 7.62 70.01 9.52L70.01 9.52L70.01 12.04L70.01 12.04Q70.01 13.94 69.17 14.81L69.17 14.81L69.17 14.81Q68.33 15.68 66.51 15.68L66.51 15.68L63.29 15.68L63.29 14.57L64.13 14.57L64.13 6.97L63.29 6.97ZM65.31 14.59L66.35 14.59L66.35 14.59Q66.99 14.59 67.46 14.46L67.46 14.46L67.46 14.46Q67.93 14.34 68.24 14.04L68.24 14.04L68.24 14.04Q68.54 13.73 68.69 13.23L68.69 13.23L68.69 13.23Q68.84 12.73 68.84 11.96L68.84 11.96L68.84 9.60L68.84 9.60Q68.84 8.83 68.69 8.33L68.69 8.33L68.69 8.33Q68.54 7.83 68.24 7.53L68.24 7.53L68.24 7.53Q67.93 7.22 67.46 7.10L67.46 7.10L67.46 7.10Q66.99 6.97 66.35 6.97L66.35 6.97L65.31 6.97L65.31 14.59ZM79.16 15.68L79.16 5.88L85.09 5.88L85.09 6.97L80.33 6.97L80.33 10.22L85.01 10.22L85.01 11.31L80.33 11.31L80.33 14.59L85.18 14.59L85.18 15.68L79.16 15.68ZM96.56 15.68L93.79 5.88L95.05 5.88L97.61 15.18L97.78 15.18L100.34 5.88L101.60 5.88L98.83 15.68L96.56 15.68ZM110.29 15.68L110.29 5.88L116.23 5.88L116.23 6.97L111.47 6.97L111.47 10.22L116.14 10.22L116.14 11.31L111.47 11.31L111.47 14.59L116.31 14.59L116.31 15.68L110.29 15.68ZM125.76 15.68L125.76 5.88L126.94 5.88L126.94 14.59L132.06 14.59L132.06 15.68L125.76 15.68ZM140.95 11.87L140.95 9.69L140.95 9.69Q140.95 7.78 141.86 6.73L141.86 6.73L141.86 6.73Q142.77 5.68 144.40 5.68L144.40 5.68L144.40 5.68Q146.02 5.68 146.93 6.73L146.93 6.73L146.93 6.73Q147.84 7.78 147.84 9.69L147.84 9.69L147.84 11.87L147.84 11.87Q147.84 13.83 146.93 14.85L146.93 14.85L146.93 14.85Q146.02 15.88 144.40 15.88L144.40 15.88L144.40 15.88Q142.77 15.88 141.86 14.85L141.86 14.85L141.86 14.85Q140.95 13.83 140.95 11.87L140.95 11.87ZM144.40 14.78L144.40 14.78L144.40 14.78Q145.53 14.78 146.10 14.01L146.10 14.01L146.10 14.01Q146.66 13.23 146.66 11.79L146.66 11.79L146.66 9.77L146.66 9.77Q146.66 8.43 146.10 7.60L146.10 7.60L146.10 7.60Q145.53 6.78 144.40 6.78L144.40 6.78L144.40 6.78Q143.26 6.78 142.69 7.60L142.69 7.60L142.69 7.60Q142.13 8.43 142.13 9.77L142.13 9.77L142.13 11.79L142.13 11.79Q142.13 13.23 142.69 14.01L142.69 14.01L142.69 14.01Q143.26 14.78 144.40 14.78ZM160.37 11.65L158.05 11.65L158.05 15.68L156.87 15.68L156.87 5.88L160.37 5.88L160.37 5.88Q161.13 5.88 161.69 6.10L161.69 6.10L161.69 6.10Q162.25 6.31 162.62 6.68L162.62 6.68L162.62 6.68Q162.99 7.04 163.18 7.53L163.18 7.53L163.18 7.53Q163.37 8.01 163.37 8.54L163.37 8.54L163.37 8.96L163.37 8.96Q163.37 9.49 163.18 9.98L163.18 9.98L163.18 9.98Q162.99 10.47 162.61 10.84L162.61 10.84L162.61 10.84Q162.23 11.21 161.67 11.43L161.67 11.43L161.67 11.43Q161.11 11.65 160.37 11.65L160.37 11.65ZM158.05 6.97L158.05 10.56L160.23 10.56L160.23 10.56Q162.19 10.56 162.19 8.88L162.19 8.88L162.19 8.62L162.19 8.62Q162.19 7.88 161.71 7.43L161.71 7.43L161.71 7.43Q161.22 6.97 160.23 6.97L160.23 6.97L158.05 6.97ZM171.89 15.68L171.89 5.88L174.13 5.88L175.45 15.18L175.62 15.18L176.93 5.88L179.17 5.88L179.17 15.68L178.08 15.68L178.08 6.38L177.91 6.38L176.60 15.68L174.47 15.68L173.15 6.38L172.98 6.38L172.98 15.68L171.89 15.68ZM188.13 15.68L188.13 5.88L194.07 5.88L194.07 6.97L189.31 6.97L189.31 10.22L193.98 10.22L193.98 11.31L189.31 11.31L189.31 14.59L194.15 14.59L194.15 15.68L188.13 15.68ZM205.76 5.88L208.59 15.18L208.75 15.18L208.75 5.88L209.93 5.88L209.93 15.68L207.58 15.68L204.75 6.38L204.58 6.38L204.58 15.68L203.41 15.68L203.41 5.88L205.76 5.88ZM218.79 6.97L218.79 5.88L225.68 5.88L225.68 6.97L222.82 6.97L222.82 15.68L221.65 15.68L221.65 6.97L218.79 6.97ZM250.42 15.68L250.42 5.88L256.44 5.88L256.44 6.97L251.59 6.97L251.59 10.22L256.35 10.22L256.35 11.31L251.59 11.31L251.59 15.68L250.42 15.68ZM265.50 11.87L265.50 9.69L265.50 9.69Q265.50 7.78 266.41 6.73L266.41 6.73L266.41 6.73Q267.32 5.68 268.94 5.68L268.94 5.68L268.94 5.68Q270.56 5.68 271.47 6.73L271.47 6.73L271.47 6.73Q272.38 7.78 272.38 9.69L272.38 9.69L272.38 11.87L272.38 11.87Q272.38 13.83 271.47 14.85L271.47 14.85L271.47 14.85Q270.56 15.88 268.94 15.88L268.94 15.88L268.94 15.88Q267.32 15.88 266.41 14.85L266.41 14.85L266.41 14.85Q265.50 13.83 265.50 11.87L265.50 11.87ZM268.94 14.78L268.94 14.78L268.94 14.78Q270.07 14.78 270.64 14.01L270.64 14.01L270.64 14.01Q271.21 13.23 271.21 11.79L271.21 11.79L271.21 9.77L271.21 9.77Q271.21 8.43 270.64 7.60L270.64 7.60L270.64 7.60Q270.07 6.78 268.94 6.78L268.94 6.78L268.94 6.78Q267.81 6.78 267.24 7.60L267.24 7.60L267.24 7.60Q266.67 8.43 266.67 9.77L266.67 9.77L266.67 11.79L266.67 11.79Q266.67 13.23 267.24 14.01L267.24 14.01L267.24 14.01Q267.81 14.78 268.94 14.78ZM287.57 12.15L287.57 15.68L286.40 15.68L286.40 12.40L286.40 12.40Q286.40 12.04 286.23 11.84L286.23 11.84L286.23 11.84Q286.06 11.65 285.64 11.65L285.64 11.65L282.59 11.65L282.59 15.68L281.41 15.68L281.41 5.88L284.91 5.88L284.91 5.88Q285.67 5.88 286.23 6.10L286.23 6.10L286.23 6.10Q286.79 6.31 287.16 6.68L287.16 6.68L287.16 6.68Q287.53 7.04 287.72 7.53L287.72 7.53L287.72 7.53Q287.91 8.01 287.91 8.54L287.91 8.54L287.91 8.96L287.91 8.96Q287.91 9.51 287.61 10.05L287.61 10.05L287.61 10.05Q287.31 10.60 286.68 10.89L286.68 10.89L286.68 11.06L286.68 11.06Q287.10 11.13 287.34 11.40L287.34 11.40L287.34 11.40Q287.57 11.66 287.57 12.15L287.57 12.15ZM282.59 6.97L282.59 10.56L284.77 10.56L284.77 10.56Q285.77 10.56 286.25 10.13L286.25 10.13L286.25 10.13Q286.73 9.70 286.73 8.88L286.73 8.88L286.73 8.62L286.73 8.62Q286.73 7.88 286.25 7.43L286.25 7.43L286.25 7.43Q285.77 6.97 284.77 6.97L284.77 6.97L282.59 6.97ZM312.58 15.68L312.58 5.88L313.75 5.88L313.75 14.59L318.88 14.59L318.88 15.68L312.58 15.68ZM327.77 11.87L327.77 9.69L327.77 9.69Q327.77 7.78 328.68 6.73L328.68 6.73L328.68 6.73Q329.59 5.68 331.21 5.68L331.21 5.68L331.21 5.68Q332.84 5.68 333.75 6.73L333.75 6.73L333.75 6.73Q334.66 7.78 334.66 9.69L334.66 9.69L334.66 11.87L334.66 11.87Q334.66 13.83 333.75 14.85L333.75 14.85L333.75 14.85Q332.84 15.88 331.21 15.88L331.21 15.88L331.21 15.88Q329.59 15.88 328.68 14.85L328.68 14.85L328.68 14.85Q327.77 13.83 327.77 11.87L327.77 11.87ZM331.21 14.78L331.21 14.78L331.21 14.78Q332.35 14.78 332.91 14.01L332.91 14.01L332.91 14.01Q333.48 13.23 333.48 11.79L333.48 11.79L333.48 9.77L333.48 9.77Q333.48 8.43 332.91 7.60L332.91 7.60L332.91 7.60Q332.35 6.78 331.21 6.78L331.21 6.78L331.21 6.78Q330.08 6.78 329.51 7.60L329.51 7.60L329.51 7.60Q328.94 8.43 328.94 9.77L328.94 9.77L328.94 11.79L328.94 11.79Q328.94 13.23 329.51 14.01L329.51 14.01L329.51 14.01Q330.08 14.78 331.21 14.78ZM346.84 14.78L346.84 14.78L346.84 14.78Q347.44 14.78 347.87 14.58L347.87 14.58L347.87 14.58Q348.29 14.38 348.56 14.04L348.56 14.04L348.56 14.04Q348.84 13.69 348.97 13.25L348.97 13.25L348.97 13.25Q349.10 12.81 349.10 12.32L349.10 12.32L349.10 12.15L350.28 12.15L350.28 12.32L350.28 12.32Q350.28 13.06 350.06 13.71L350.06 13.71L350.06 13.71Q349.83 14.36 349.40 14.85L349.40 14.85L349.40 14.85Q348.96 15.33 348.32 15.60L348.32 15.60L348.32 15.60Q347.68 15.88 346.84 15.88L346.84 15.88L346.84 15.88Q345.21 15.88 344.30 14.85L344.30 14.85L344.30 14.85Q343.39 13.83 343.39 11.87L343.39 11.87L343.39 9.69L343.39 9.69Q343.39 7.78 344.30 6.73L344.30 6.73L344.30 6.73Q345.21 5.68 346.84 5.68L346.84 5.68L346.84 5.68Q347.68 5.68 348.32 5.96L348.32 5.96L348.32 5.96Q348.96 6.23 349.40 6.71L349.40 6.71L349.40 6.71Q349.83 7.20 350.06 7.85L350.06 7.85L350.06 7.85Q350.28 8.50 350.28 9.24L350.28 9.24L350.28 9.41L349.10 9.41L349.10 9.24L349.10 9.24Q349.09 8.76 348.96 8.32L348.96 8.32L348.96 8.32Q348.82 7.87 348.55 7.53L348.55 7.53L348.55 7.53Q348.28 7.18 347.86 6.98L347.86 6.98L347.86 6.98Q347.44 6.78 346.84 6.78L346.84 6.78L346.84 6.78Q345.70 6.78 345.13 7.60L345.13 7.60L345.13 7.60Q344.57 8.43 344.57 9.77L344.57 9.77L344.57 11.79L344.57 11.79Q344.57 13.23 345.13 14.01L345.13 14.01L345.13 14.01Q345.70 14.78 346.84 14.78ZM365.16 15.68L364.45 13.24L360.25 13.24L359.53 15.68L358.27 15.68L361.24 5.88L363.45 5.88L366.42 15.68L365.16 15.68ZM362.43 6.38L362.26 6.38L360.57 12.15L364.13 12.15L362.43 6.38ZM374.85 15.68L374.85 5.88L376.03 5.88L376.03 14.59L381.15 14.59L381.15 15.68L374.85 15.68ZM405.57 15.68L405.57 14.59L406.41 14.59L406.41 6.97L405.57 6.97L405.57 5.88L409.53 5.88L409.53 5.88Q410.23 5.88 410.77 6.08L410.77 6.08L410.77 6.08Q411.31 6.27 411.68 6.61L411.68 6.61L411.68 6.61Q412.05 6.94 412.24 7.41L412.24 7.41L412.24 7.41Q412.43 7.88 412.43 8.43L412.43 8.43L412.43 8.60L412.43 8.60Q412.43 9.00 412.30 9.34L412.30 9.34L412.30 9.34Q412.17 9.67 411.95 9.94L411.95 9.94L411.95 9.94Q411.73 10.21 411.42 10.39L411.42 10.39L411.42 10.39Q411.12 10.58 410.77 10.68L410.77 10.68L410.77 10.85L410.77 10.85Q411.47 11.05 411.95 11.60L411.95 11.60L411.95 11.60Q412.43 12.15 412.43 12.95L412.43 12.95L412.43 13.12L412.43 13.12Q412.43 13.66 412.24 14.13L412.24 14.13L412.24 14.13Q412.05 14.60 411.68 14.95L411.68 14.95L411.68 14.95Q411.31 15.29 410.77 15.48L410.77 15.48L410.77 15.48Q410.23 15.68 409.53 15.68L409.53 15.68L405.57 15.68ZM407.58 11.31L407.58 14.59L409.44 14.59L409.44 14.59Q410.27 14.59 410.79 14.17L410.79 14.17L410.79 14.17Q411.31 13.76 411.31 13.03L411.31 13.03L411.31 12.95L411.31 12.95Q411.31 12.19 410.82 11.75L410.82 11.75L410.82 11.75Q410.33 11.31 409.49 11.31L409.49 11.31L407.58 11.31ZM407.58 6.97L407.58 10.22L409.49 10.22L409.49 10.22Q410.33 10.22 410.82 9.79L410.82 9.79L410.82 9.79Q411.31 9.35 411.31 8.60L411.31 8.60L411.31 8.51L411.31 8.51Q411.31 7.80 410.79 7.38L410.79 7.38L410.79 7.38Q410.27 6.97 409.44 6.97L409.44 6.97L407.58 6.97ZM421.26 5.88L422.44 5.88L422.44 12.38L422.44 12.38Q422.44 13.57 422.99 14.17L422.99 14.17L422.99 14.17Q423.54 14.78 424.62 14.78L424.62 14.78L424.62 14.78Q425.70 14.78 426.25 14.17L426.25 14.17L426.25 14.17Q426.80 13.57 426.80 12.38L426.80 12.38L426.80 5.88L427.98 5.88L427.98 12.38L427.98 12.38Q427.98 14.08 427.08 14.98L427.08 14.98L427.08 14.98Q426.19 15.88 424.62 15.88L424.62 15.88L424.62 15.88Q423.05 15.88 422.16 14.98L422.16 14.98L422.16 14.98Q421.26 14.08 421.26 12.38L421.26 12.38L421.26 5.88ZM442.50 9.21L442.50 8.71L442.50 8.71Q442.50 8.23 442.31 7.87L442.31 7.87L442.31 7.87Q442.12 7.50 441.80 7.27L441.80 7.27L441.80 7.27Q441.48 7.03 441.06 6.90L441.06 6.90L441.06 6.90Q440.64 6.78 440.17 6.78L440.17 6.78L440.17 6.78Q439.77 6.78 439.40 6.88L439.40 6.88L439.40 6.88Q439.04 6.99 438.75 7.18L438.75 7.18L438.75 7.18Q438.47 7.38 438.30 7.66L438.30 7.66L438.30 7.66Q438.13 7.95 438.13 8.33L438.13 8.33L438.13 8.41L438.13 8.41Q438.13 8.82 438.30 9.11L438.30 9.11L438.30 9.11Q438.47 9.39 438.79 9.60L438.79 9.60L438.79 9.60Q439.12 9.80 439.61 9.93L439.61 9.93L439.61 9.93Q440.10 10.07 440.76 10.16L440.76 10.16L440.76 10.16Q442.30 10.40 443.03 11.07L443.03 11.07L443.03 11.07Q443.76 11.73 443.76 12.85L443.76 12.85L443.76 13.02L443.76 13.02Q443.76 13.65 443.54 14.17L443.54 14.17L443.54 14.17Q443.32 14.70 442.90 15.08L442.90 15.08L442.90 15.08Q442.47 15.46 441.84 15.67L441.84 15.67L441.84 15.67Q441.21 15.88 440.38 15.88L440.38 15.88L440.38 15.88Q439.45 15.88 438.72 15.60L438.72 15.60L438.72 15.60Q438.00 15.33 437.52 14.85L437.52 14.85L437.52 14.85Q437.04 14.36 436.79 13.71L436.79 13.71L436.79 13.71Q436.53 13.06 436.53 12.29L436.53 12.29L436.53 11.87L437.71 11.87L437.71 12.21L437.71 12.21Q437.71 13.50 438.42 14.14L438.42 14.14L438.42 14.14Q439.12 14.78 440.38 14.78L440.38 14.78L440.38 14.78Q441.48 14.78 442.03 14.30L442.03 14.30L442.03 14.30Q442.58 13.82 442.58 13.02L442.58 13.02L442.58 12.94L442.58 12.94Q442.58 12.17 442.01 11.76L442.01 11.76L442.01 11.76Q441.45 11.35 440.17 11.17L440.17 11.17L440.17 11.17Q439.43 11.07 438.84 10.87L438.84 10.87L438.84 10.87Q438.24 10.67 437.82 10.34L437.82 10.34L437.82 10.34Q437.40 10.01 437.18 9.55L437.18 9.55L437.18 9.55Q436.95 9.09 436.95 8.46L436.95 8.46L436.95 8.29L436.95 8.29Q436.95 7.71 437.19 7.24L437.19 7.24L437.19 7.24Q437.43 6.76 437.86 6.41L437.86 6.41L437.86 6.41Q438.28 6.06 438.88 5.87L438.88 5.87L438.88 5.87Q439.47 5.68 440.19 5.68L440.19 5.68L440.19 5.68Q441.01 5.68 441.66 5.92L441.66 5.92L441.66 5.92Q442.32 6.16 442.76 6.56L442.76 6.56L442.76 6.56Q443.21 6.96 443.44 7.50L443.44 7.50L443.44 7.50Q443.67 8.04 443.67 8.62L443.67 8.62L443.67 9.21L442.50 9.21ZM452.65 6.97L452.65 5.88L458.86 5.88L458.86 6.97L456.34 6.97L456.34 14.59L458.86 14.59L458.86 15.68L452.65 15.68L452.65 14.59L455.17 14.59L455.17 6.97L452.65 6.97ZM470.41 5.88L473.24 15.18L473.41 15.18L473.41 5.88L474.59 5.88L474.59 15.68L472.23 15.68L469.41 6.38L469.24 6.38L469.24 15.68L468.06 15.68L468.06 5.88L470.41 5.88ZM483.92 15.68L483.92 5.88L489.86 5.88L489.86 6.97L485.10 6.97L485.10 10.22L489.78 10.22L489.78 11.31L485.10 11.31L485.10 14.59L489.94 14.59L489.94 15.68L483.92 15.68ZM504.77 9.21L504.77 8.71L504.77 8.71Q504.77 8.23 504.58 7.87L504.58 7.87L504.58 7.87Q504.39 7.50 504.07 7.27L504.07 7.27L504.07 7.27Q503.75 7.03 503.33 6.90L503.33 6.90L503.33 6.90Q502.91 6.78 502.45 6.78L502.45 6.78L502.45 6.78Q502.04 6.78 501.68 6.88L501.68 6.88L501.68 6.88Q501.31 6.99 501.02 7.18L501.02 7.18L501.02 7.18Q500.74 7.38 500.57 7.66L500.57 7.66L500.57 7.66Q500.40 7.95 500.40 8.33L500.40 8.33L500.40 8.41L500.40 8.41Q500.40 8.82 500.57 9.11L500.57 9.11L500.57 9.11Q500.74 9.39 501.07 9.60L501.07 9.60L501.07 9.60Q501.40 9.80 501.89 9.93L501.89 9.93L501.89 9.93Q502.38 10.07 503.03 10.16L503.03 10.16L503.03 10.16Q504.57 10.40 505.30 11.07L505.30 11.07L505.30 11.07Q506.03 11.73 506.03 12.85L506.03 12.85L506.03 13.02L506.03 13.02Q506.03 13.65 505.81 14.17L505.81 14.17L505.81 14.17Q505.60 14.70 505.17 15.08L505.17 15.08L505.17 15.08Q504.74 15.46 504.11 15.67L504.11 15.67L504.11 15.67Q503.48 15.88 502.66 15.88L502.66 15.88L502.66 15.88Q501.72 15.88 501.00 15.60L501.00 15.60L501.00 15.60Q500.28 15.33 499.79 14.85L499.79 14.85L499.79 14.85Q499.31 14.36 499.06 13.71L499.06 13.71L499.06 13.71Q498.81 13.06 498.81 12.29L498.81 12.29L498.81 11.87L499.98 11.87L499.98 12.21L499.98 12.21Q499.98 13.50 500.69 14.14L500.69 14.14L500.69 14.14Q501.40 14.78 502.66 14.78L502.66 14.78L502.66 14.78Q503.75 14.78 504.30 14.30L504.30 14.30L504.30 14.30Q504.85 13.82 504.85 13.02L504.85 13.02L504.85 12.94L504.85 12.94Q504.85 12.17 504.29 11.76L504.29 11.76L504.29 11.76Q503.72 11.35 502.45 11.17L502.45 11.17L502.45 11.17Q501.70 11.07 501.11 10.87L501.11 10.87L501.11 10.87Q500.51 10.67 500.09 10.34L500.09 10.34L500.09 10.34Q499.67 10.01 499.45 9.55L499.45 9.55L499.45 9.55Q499.23 9.09 499.23 8.46L499.23 8.46L499.23 8.29L499.23 8.29Q499.23 7.71 499.46 7.24L499.46 7.24L499.46 7.24Q499.70 6.76 500.13 6.41L500.13 6.41L500.13 6.41Q500.56 6.06 501.15 5.87L501.15 5.87L501.15 5.87Q501.75 5.68 502.46 5.68L502.46 5.68L502.46 5.68Q503.29 5.68 503.94 5.92L503.94 5.92L503.94 5.92Q504.59 6.16 505.04 6.56L505.04 6.56L505.04 6.56Q505.48 6.96 505.71 7.50L505.71 7.50L505.71 7.50Q505.95 8.04 505.95 8.62L505.95 8.62L505.95 9.21L504.77 9.21ZM520.34 9.21L520.34 8.71L520.34 8.71Q520.34 8.23 520.15 7.87L520.15 7.87L520.15 7.87Q519.96 7.50 519.64 7.27L519.64 7.27L519.64 7.27Q519.32 7.03 518.90 6.90L518.90 6.90L518.90 6.90Q518.48 6.78 518.01 6.78L518.01 6.78L518.01 6.78Q517.61 6.78 517.24 6.88L517.24 6.88L517.24 6.88Q516.88 6.99 516.59 7.18L516.59 7.18L516.59 7.18Q516.31 7.38 516.14 7.66L516.14 7.66L516.14 7.66Q515.97 7.95 515.97 8.33L515.97 8.33L515.97 8.41L515.97 8.41Q515.97 8.82 516.14 9.11L516.14 9.11L516.14 9.11Q516.31 9.39 516.63 9.60L516.63 9.60L516.63 9.60Q516.96 9.80 517.45 9.93L517.45 9.93L517.45 9.93Q517.94 10.07 518.60 10.16L518.60 10.16L518.60 10.16Q520.14 10.40 520.87 11.07L520.87 11.07L520.87 11.07Q521.60 11.73 521.60 12.85L521.60 12.85L521.60 13.02L521.60 13.02Q521.60 13.65 521.38 14.17L521.38 14.17L521.38 14.17Q521.16 14.70 520.74 15.08L520.74 15.08L520.74 15.08Q520.31 15.46 519.68 15.67L519.68 15.67L519.68 15.67Q519.05 15.88 518.22 15.88L518.22 15.88L518.22 15.88Q517.29 15.88 516.56 15.60L516.56 15.60L516.56 15.60Q515.84 15.33 515.36 14.85L515.36 14.85L515.36 14.85Q514.88 14.36 514.63 13.71L514.63 13.71L514.63 13.71Q514.37 13.06 514.37 12.29L514.37 12.29L514.37 11.87L515.55 11.87L515.55 12.21L515.55 12.21Q515.55 13.50 516.26 14.14L516.26 14.14L516.26 14.14Q516.96 14.78 518.22 14.78L518.22 14.78L518.22 14.78Q519.32 14.78 519.87 14.30L519.87 14.30L519.87 14.30Q520.42 13.82 520.42 13.02L520.42 13.02L520.42 12.94L520.42 12.94Q520.42 12.17 519.85 11.76L519.85 11.76L519.85 11.76Q519.29 11.35 518.01 11.17L518.01 11.17L518.01 11.17Q517.27 11.07 516.68 10.87L516.68 10.87L516.68 10.87Q516.08 10.67 515.66 10.34L515.66 10.34L515.66 10.34Q515.24 10.01 515.02 9.55L515.02 9.55L515.02 9.55Q514.79 9.09 514.79 8.46L514.79 8.46L514.79 8.29L514.79 8.29Q514.79 7.71 515.03 7.24L515.03 7.24L515.03 7.24Q515.27 6.76 515.70 6.41L515.70 6.41L515.70 6.41Q516.12 6.06 516.72 5.87L516.72 5.87L516.72 5.87Q517.31 5.68 518.03 5.68L518.03 5.68L518.03 5.68Q518.85 5.68 519.50 5.92L519.50 5.92L519.50 5.92Q520.16 6.16 520.60 6.56L520.60 6.56L520.60 6.56Q521.05 6.96 521.28 7.50L521.28 7.50L521.28 7.50Q521.51 8.04 521.51 8.62L521.51 8.62L521.51 9.21L520.34 9.21Z"></path></g></svg>