<svg data-v-fde0c5aa="" xmlns="http://www.w3.org/2000/svg" viewBox="0 0 300 300" class="font"><!----><defs data-v-fde0c5aa=""><!----></defs><rect data-v-fde0c5aa="" fill="#F47973" x="0" y="0" width="300px" height="300px" class="logo-background-square"></rect><defs data-v-fde0c5aa=""><!----></defs><g data-v-fde0c5aa="" id="f44c6960-0a15-4b53-8980-ef9a08dfa5e1" fill="#10143A" transform="matrix(1.6325319751244136,0,0,1.6325319751244136,38.693974400439174,132.956365307835)"><path d="M4.17 14.11L4.17 14.11Q3.15 14.11 2.39 13.79L2.39 13.79L2.39 13.79Q1.62 13.47 1.21 12.87L1.21 12.87L1.21 12.87Q0.80 12.28 0.80 11.49L0.80 11.49L0.80 11.10L0.80 11.10Q0.80 10.92 0.98 10.92L0.98 10.92L1.58 10.92L1.58 10.92Q1.76 10.92 1.76 11.10L1.76 11.10L1.76 11.44L1.76 11.44Q1.76 12.24 2.44 12.74L2.44 12.74L2.44 12.74Q3.11 13.24 4.24 13.24L4.24 13.24L4.24 13.24Q5.32 13.24 5.88 12.79L5.88 12.79L5.88 12.79Q6.44 12.33 6.44 11.58L6.44 11.58L6.44 11.58Q6.44 11.09 6.18 10.74L6.18 10.74L6.18 10.74Q5.92 10.39 5.39 10.08L5.39 10.08L5.39 10.08Q4.86 9.77 3.86 9.37L3.86 9.37L3.86 9.37Q2.81 8.95 2.23 8.63L2.23 8.63L2.23 8.63Q1.65 8.32 1.29 7.82L1.29 7.82L1.29 7.82Q0.94 7.32 0.94 6.57L0.94 6.57L0.94 6.57Q0.94 5.39 1.76 4.74L1.76 4.74L1.76 4.74Q2.58 4.09 4.02 4.09L4.02 4.09L4.02 4.09Q5.56 4.09 6.45 4.82L6.45 4.82L6.45 4.82Q7.35 5.54 7.35 6.75L7.35 6.75L7.35 7.01L7.35 7.01Q7.35 7.20 7.17 7.20L7.17 7.20L6.55 7.20L6.55 7.20Q6.37 7.20 6.37 7.01L6.37 7.01L6.37 6.80L6.37 6.80Q6.37 5.99 5.74 5.47L5.74 5.47L5.74 5.47Q5.11 4.96 3.96 4.96L3.96 4.96L3.96 4.96Q2.97 4.96 2.44 5.36L2.44 5.36L2.44 5.36Q1.92 5.77 1.92 6.54L1.92 6.54L1.92 6.54Q1.92 7.04 2.18 7.37L2.18 7.37L2.18 7.37Q2.44 7.70 2.92 7.95L2.92 7.95L2.92 7.95Q3.40 8.19 4.40 8.58L4.40 8.58L4.40 8.58Q5.42 9.00 6.05 9.37L6.05 9.37L6.05 9.37Q6.68 9.73 7.06 10.25L7.06 10.25L7.06 10.25Q7.43 10.78 7.43 11.54L7.43 11.54L7.43 11.54Q7.43 12.70 6.57 13.40L6.57 13.40L6.57 13.40Q5.71 14.11 4.17 14.11L4.17 14.11ZM12.04 14.11L12.04 14.11Q11.02 14.11 10.30 13.59L10.30 13.59L10.30 13.59Q9.58 13.08 9.30 12.17L9.30 12.17L9.30 12.17Q9.10 11.52 9.10 10.44L9.10 10.44L9.10 10.44Q9.10 9.38 9.28 8.74L9.28 8.74L9.28 8.74Q9.56 7.84 10.28 7.32L10.28 7.32L10.28 7.32Q11.00 6.80 12.04 6.80L12.04 6.80L12.04 6.80Q13.05 6.80 13.77 7.32L13.77 7.32L13.77 7.32Q14.49 7.84 14.76 8.72L14.76 8.72L14.76 8.72Q14.95 9.39 14.95 10.44L14.95 10.44L14.95 10.44Q14.95 11.52 14.76 12.17L14.76 12.17L14.76 12.17Q14.48 13.08 13.76 13.59L13.76 13.59L13.76 13.59Q13.03 14.11 12.04 14.11L12.04 14.11ZM12.04 13.24L12.04 13.24Q12.71 13.24 13.19 12.87L13.19 12.87L13.19 12.87Q13.66 12.50 13.83 11.87L13.83 11.87L13.83 11.87Q13.94 11.42 13.94 10.46L13.94 10.46L13.94 10.46Q13.94 9.45 13.83 9.04L13.83 9.04L13.83 9.04Q13.68 8.41 13.20 8.04L13.20 8.04L13.20 8.04Q12.71 7.67 12.01 7.67L12.01 7.67L12.01 7.67Q11.34 7.67 10.86 8.04L10.86 8.04L10.86 8.04Q10.39 8.41 10.22 9.04L10.22 9.04L10.22 9.04Q10.11 9.45 10.11 10.46L10.11 10.46L10.11 10.46Q10.11 11.47 10.22 11.87L10.22 11.87L10.22 11.87Q10.37 12.50 10.86 12.87L10.86 12.87L10.86 12.87Q11.34 13.24 12.04 13.24L12.04 13.24ZM21.25 7.10L21.25 7.10Q21.25 6.92 21.43 6.92L21.43 6.92L22.06 6.92L22.06 6.92Q22.25 6.92 22.25 7.10L22.25 7.10L22.25 13.82L22.25 13.82Q22.25 14 22.06 14L22.06 14L21.43 14L21.43 14Q21.25 14 21.25 13.82L21.25 13.82L21.25 13.29L21.25 13.29Q21.25 13.24 21.22 13.23L21.22 13.23L21.22 13.23Q21.20 13.22 21.17 13.26L21.17 13.26L21.17 13.26Q20.57 14.10 19.32 14.10L19.32 14.10L19.32 14.10Q18.65 14.10 18.08 13.82L18.08 13.82L18.08 13.82Q17.51 13.55 17.19 13.03L17.19 13.03L17.19 13.03Q16.86 12.52 16.86 11.79L16.86 11.79L16.86 7.10L16.86 7.10Q16.86 6.92 17.04 6.92L17.04 6.92L17.67 6.92L17.67 6.92Q17.85 6.92 17.85 7.10L17.85 7.10L17.85 11.49L17.85 11.49Q17.85 12.29 18.30 12.76L18.30 12.76L18.30 12.76Q18.75 13.23 19.52 13.23L19.52 13.23L19.52 13.23Q20.31 13.23 20.78 12.75L20.78 12.75L20.78 12.75Q21.25 12.28 21.25 11.49L21.25 11.49L21.25 7.10ZM27.65 7.56L27.65 7.56Q27.65 7.74 27.47 7.74L27.47 7.74L25.94 7.74L25.94 7.74Q25.87 7.74 25.87 7.81L25.87 7.81L25.87 11.90L25.87 11.90Q25.87 12.57 26.17 12.85L26.17 12.85L26.17 12.85Q26.47 13.12 27.12 13.12L27.12 13.12L27.43 13.12L27.43 13.12Q27.61 13.12 27.61 13.30L27.61 13.30L27.61 13.79L27.61 13.79Q27.61 13.97 27.43 13.99L27.43 13.99L26.95 13.99L26.95 13.99Q25.94 13.99 25.42 13.61L25.42 13.61L25.42 13.61Q24.91 13.23 24.91 12.21L24.91 12.21L24.91 7.81L24.91 7.81Q24.91 7.74 24.84 7.74L24.84 7.74L24.04 7.74L24.04 7.74Q23.86 7.74 23.86 7.56L23.86 7.56L23.86 7.10L23.86 7.10Q23.86 6.92 24.04 6.92L24.04 6.92L24.84 6.92L24.84 6.92Q24.91 6.92 24.91 6.85L24.91 6.85L24.91 5.28L24.91 5.28Q24.91 5.10 25.09 5.10L25.09 5.10L25.69 5.10L25.69 5.10Q25.87 5.10 25.87 5.28L25.87 5.28L25.87 6.85L25.87 6.85Q25.87 6.92 25.94 6.92L25.94 6.92L27.47 6.92L27.47 6.92Q27.65 6.92 27.65 7.10L27.65 7.10L27.65 7.56ZM32.51 6.82L32.51 6.82Q33.61 6.82 34.28 7.48L34.28 7.48L34.28 7.48Q34.94 8.13 34.94 9.24L34.94 9.24L34.94 13.82L34.94 13.82Q34.94 14 34.76 14L34.76 14L34.13 14L34.13 14Q33.95 14 33.95 13.82L33.95 13.82L33.95 9.44L33.95 9.44Q33.95 8.65 33.49 8.17L33.49 8.17L33.49 8.17Q33.03 7.69 32.28 7.69L32.28 7.69L32.28 7.69Q31.57 7.69 31.10 8.09L31.10 8.09L31.10 8.09Q30.63 8.50 30.56 9.16L30.56 9.16L30.56 13.82L30.56 13.82Q30.56 14 30.38 14L30.38 14L29.75 14L29.75 14Q29.57 14 29.57 13.82L29.57 13.82L29.57 4.38L29.57 4.38Q29.57 4.20 29.75 4.20L29.75 4.20L30.38 4.20L30.38 4.20Q30.56 4.20 30.56 4.38L30.56 4.38L30.56 7.62L30.56 7.62Q30.56 7.66 30.59 7.68L30.59 7.68L30.59 7.68Q30.62 7.70 30.63 7.66L30.63 7.66L30.63 7.66Q31.25 6.82 32.51 6.82L32.51 6.82ZM46.45 4.89L46.45 4.89Q46.45 5.07 46.27 5.07L46.27 5.07L41.17 5.07L41.17 5.07Q41.10 5.07 41.10 5.14L41.10 5.14L41.10 8.57L41.10 8.57Q41.10 8.64 41.17 8.64L41.17 8.64L44.73 8.64L44.73 8.64Q44.91 8.64 44.91 8.82L44.91 8.82L44.91 9.32L44.91 9.32Q44.91 9.51 44.73 9.51L44.73 9.51L41.17 9.51L41.17 9.51Q41.10 9.51 41.10 9.58L41.10 9.58L41.10 13.06L41.10 13.06Q41.10 13.13 41.17 13.13L41.17 13.13L46.27 13.13L46.27 13.13Q46.45 13.13 46.45 13.31L46.45 13.31L46.45 13.82L46.45 13.82Q46.45 14 46.27 14L46.27 14L40.29 14L40.29 14Q40.11 14 40.11 13.82L40.11 13.82L40.11 4.38L40.11 4.38Q40.11 4.20 40.29 4.20L40.29 4.20L46.27 4.20L46.27 4.20Q46.45 4.20 46.45 4.38L46.45 4.38L46.45 4.89ZM51.32 6.82L51.32 6.82Q52.43 6.82 53.09 7.48L53.09 7.48L53.09 7.48Q53.76 8.13 53.76 9.24L53.76 9.24L53.76 13.82L53.76 13.82Q53.76 14 53.58 14L53.58 14L52.95 14L52.95 14Q52.77 14 52.77 13.82L52.77 13.82L52.77 9.44L52.77 9.44Q52.77 8.65 52.30 8.17L52.30 8.17L52.30 8.17Q51.84 7.69 51.10 7.69L51.10 7.69L51.10 7.69Q50.39 7.69 49.92 8.09L49.92 8.09L49.92 8.09Q49.45 8.50 49.38 9.16L49.38 9.16L49.38 13.82L49.38 13.82Q49.38 14 49.20 14L49.20 14L48.57 14L48.57 14Q48.38 14 48.38 13.82L48.38 13.82L48.38 7.10L48.38 7.10Q48.38 6.92 48.57 6.92L48.57 6.92L49.20 6.92L49.20 6.92Q49.38 6.92 49.38 7.10L49.38 7.10L49.38 7.62L49.38 7.62Q49.38 7.66 49.41 7.68L49.41 7.68L49.41 7.68Q49.43 7.70 49.45 7.66L49.45 7.66L49.45 7.66Q50.06 6.82 51.32 6.82L51.32 6.82ZM60.28 4.38L60.28 4.38Q60.28 4.20 60.47 4.20L60.47 4.20L61.10 4.20L61.10 4.20Q61.28 4.20 61.28 4.38L61.28 4.38L61.28 13.82L61.28 13.82Q61.28 14 61.10 14L61.10 14L60.47 14L60.47 14Q60.28 14 60.28 13.82L60.28 13.82L60.28 13.29L60.28 13.29Q60.28 13.24 60.26 13.24L60.26 13.24L60.26 13.24Q60.23 13.23 60.20 13.26L60.20 13.26L60.20 13.26Q59.89 13.66 59.44 13.89L59.44 13.89L59.44 13.89Q58.98 14.11 58.42 14.11L58.42 14.11L58.42 14.11Q57.44 14.11 56.78 13.61L56.78 13.61L56.78 13.61Q56.11 13.10 55.86 12.24L55.86 12.24L55.86 12.24Q55.66 11.61 55.66 10.46L55.66 10.46L55.66 10.46Q55.66 9.30 55.83 8.72L55.83 8.72L55.83 8.72Q56.08 7.83 56.76 7.31L56.76 7.31L56.76 7.31Q57.43 6.80 58.42 6.80L58.42 6.80L58.42 6.80Q58.97 6.80 59.43 7.02L59.43 7.02L59.43 7.02Q59.89 7.24 60.20 7.64L60.20 7.64L60.20 7.64Q60.23 7.69 60.26 7.67L60.26 7.67L60.26 7.67Q60.28 7.66 60.28 7.62L60.28 7.62L60.28 4.38ZM60.02 12.17L60.02 12.17Q60.14 11.89 60.20 11.51L60.20 11.51L60.20 11.51Q60.26 11.13 60.26 10.46L60.26 10.46L60.26 10.46Q60.26 9.79 60.20 9.40L60.20 9.40L60.20 9.40Q60.14 9.02 60.00 8.72L60.00 8.72L60.00 8.72Q59.84 8.25 59.45 7.96L59.45 7.96L59.45 7.96Q59.07 7.67 58.53 7.67L58.53 7.67L58.53 7.67Q57.97 7.67 57.57 7.95L57.57 7.95L57.57 7.95Q57.16 8.23 56.98 8.69L56.98 8.69L56.98 8.69Q56.81 9.00 56.73 9.39L56.73 9.39L56.73 9.39Q56.66 9.77 56.66 10.46L56.66 10.46L56.66 10.46Q56.66 11.12 56.71 11.49L56.71 11.49L56.71 11.49Q56.77 11.86 56.91 12.15L56.91 12.15L56.91 12.15Q57.08 12.66 57.50 12.95L57.50 12.95L57.50 12.95Q57.93 13.24 58.52 13.24L58.52 13.24L58.52 13.24Q59.08 13.24 59.46 12.95L59.46 12.95L59.46 12.95Q59.84 12.66 60.02 12.17L60.02 12.17ZM68.42 14L68.42 14Q68.26 14 68.22 13.85L68.22 13.85L65.56 4.41L65.55 4.35L65.55 4.35Q65.55 4.20 65.72 4.20L65.72 4.20L66.40 4.20L66.40 4.20Q66.56 4.20 66.60 4.35L66.60 4.35L68.70 11.94L68.70 11.94Q68.71 11.98 68.74 11.98L68.74 11.98L68.74 11.98Q68.77 11.98 68.78 11.94L68.78 11.94L70.74 4.35L70.74 4.35Q70.78 4.20 70.95 4.20L70.95 4.20L71.62 4.20L71.62 4.20Q71.78 4.20 71.82 4.35L71.82 4.35L73.86 11.96L73.86 11.96Q73.88 12.00 73.91 12.00L73.91 12.00L73.91 12.00Q73.93 12.00 73.95 11.96L73.95 11.96L76.05 4.35L76.05 4.35Q76.09 4.20 76.24 4.20L76.24 4.20L76.89 4.20L76.89 4.20Q76.99 4.20 77.03 4.26L77.03 4.26L77.03 4.26Q77.07 4.31 77.04 4.41L77.04 4.41L74.42 13.85L74.42 13.85Q74.38 14 74.23 14L74.23 14L73.56 14L73.56 14Q73.39 14 73.35 13.85L73.35 13.85L71.33 6.06L71.33 6.06Q71.32 6.02 71.29 6.02L71.29 6.02L71.29 6.02Q71.26 6.02 71.25 6.06L71.25 6.06L69.26 13.85L69.26 13.85Q69.22 14 69.05 14L69.05 14L68.42 14ZM81.28 13.26L81.28 13.26Q81.91 13.24 82.37 12.97L82.37 12.97L82.37 12.97Q82.82 12.70 83.08 12.21L83.08 12.21L83.08 12.21Q83.10 12.14 83.17 12.11L83.17 12.11L83.17 12.11Q83.24 12.08 83.31 12.12L83.31 12.12L83.72 12.35L83.72 12.35Q83.89 12.45 83.80 12.59L83.80 12.59L83.80 12.59Q83.47 13.29 82.80 13.70L82.80 13.70L82.80 13.70Q82.12 14.11 81.20 14.11L81.20 14.11L81.20 14.11Q80.22 14.11 79.55 13.65L79.55 13.65L79.55 13.65Q78.88 13.19 78.58 12.36L78.58 12.36L78.58 12.36Q78.32 11.66 78.32 10.43L78.32 10.43L78.32 10.43Q78.32 9.83 78.34 9.47L78.34 9.47L78.34 9.47Q78.36 9.11 78.44 8.81L78.44 8.81L78.44 8.81Q78.68 7.90 79.40 7.35L79.40 7.35L79.40 7.35Q80.12 6.80 81.14 6.80L81.14 6.80L81.14 6.80Q82.36 6.80 83.05 7.43L83.05 7.43L83.05 7.43Q83.75 8.06 83.94 9.21L83.94 9.21L83.94 9.21Q84.03 9.66 84.03 10.61L84.03 10.61L84.03 10.61Q84.03 10.79 83.85 10.79L83.85 10.79L79.37 10.79L79.37 10.79Q79.30 10.79 79.30 10.86L79.30 10.86L79.30 10.86Q79.30 11.56 79.38 11.89L79.38 11.89L79.38 11.89Q79.53 12.52 80.03 12.89L80.03 12.89L80.03 12.89Q80.53 13.26 81.28 13.26L81.28 13.26ZM81.14 7.67L81.14 7.67Q80.44 7.67 80.00 8.03L80.00 8.03L80.00 8.03Q79.55 8.39 79.41 8.99L79.41 8.99L79.41 8.99Q79.32 9.27 79.30 9.94L79.30 9.94L79.30 9.94Q79.30 10.01 79.37 10.01L79.37 10.01L82.96 10.01L82.96 10.01Q83.03 10.01 83.03 9.94L83.03 9.94L83.03 9.94Q83.01 9.32 82.95 9.04L82.95 9.04L82.95 9.04Q82.80 8.41 82.33 8.04L82.33 8.04L82.33 8.04Q81.86 7.67 81.14 7.67L81.14 7.67ZM91.45 8.72L91.45 8.72Q91.62 9.30 91.62 10.46L91.62 10.46L91.62 10.46Q91.62 11.61 91.42 12.24L91.42 12.24L91.42 12.24Q91.17 13.10 90.50 13.61L90.50 13.61L90.50 13.61Q89.84 14.11 88.86 14.11L88.86 14.11L88.86 14.11Q88.30 14.11 87.84 13.89L87.84 13.89L87.84 13.89Q87.39 13.66 87.08 13.26L87.08 13.26L87.08 13.26Q87.05 13.23 87.02 13.24L87.02 13.24L87.02 13.24Q87.00 13.24 87.00 13.29L87.00 13.29L87.00 13.82L87.00 13.82Q87.00 14 86.81 14L86.81 14L86.18 14L86.18 14Q86.00 14 86.00 13.82L86.00 13.82L86.00 4.38L86.00 4.38Q86.00 4.20 86.18 4.20L86.18 4.20L86.81 4.20L86.81 4.20Q87.00 4.20 87.00 4.38L87.00 4.38L87.00 7.62L87.00 7.62Q87.00 7.66 87.02 7.67L87.02 7.67L87.02 7.67Q87.05 7.69 87.08 7.64L87.08 7.64L87.08 7.64Q87.39 7.24 87.85 7.02L87.85 7.02L87.85 7.02Q88.31 6.80 88.86 6.80L88.86 6.80L88.86 6.80Q89.85 6.80 90.52 7.31L90.52 7.31L90.52 7.31Q91.20 7.83 91.45 8.72L91.45 8.72ZM90.37 12.15L90.37 12.15Q90.51 11.86 90.57 11.49L90.57 11.49L90.57 11.49Q90.62 11.12 90.62 10.46L90.62 10.46L90.62 10.46Q90.62 9.77 90.54 9.39L90.54 9.39L90.54 9.39Q90.47 9.00 90.30 8.69L90.30 8.69L90.30 8.69Q90.12 8.23 89.71 7.95L89.71 7.95L89.71 7.95Q89.31 7.67 88.75 7.67L88.75 7.67L88.75 7.67Q88.21 7.67 87.83 7.96L87.83 7.96L87.83 7.96Q87.44 8.25 87.28 8.72L87.28 8.72L87.28 8.72Q87.14 9.02 87.08 9.40L87.08 9.40L87.08 9.40Q87.02 9.79 87.02 10.46L87.02 10.46L87.02 10.46Q87.02 11.13 87.08 11.51L87.08 11.51L87.08 11.51Q87.14 11.89 87.26 12.17L87.26 12.17L87.26 12.17Q87.44 12.66 87.82 12.95L87.82 12.95L87.82 12.95Q88.20 13.24 88.76 13.24L88.76 13.24L88.76 13.24Q89.35 13.24 89.77 12.95L89.77 12.95L89.77 12.95Q90.20 12.66 90.37 12.15L90.37 12.15ZM96.77 14L96.77 14Q96.59 14 96.59 13.82L96.59 13.82L96.59 4.38L96.59 4.38Q96.59 4.20 96.77 4.20L96.77 4.20L100.03 4.20L100.03 4.20Q101.42 4.20 102.23 4.93L102.23 4.93L102.23 4.93Q103.05 5.66 103.05 6.90L103.05 6.90L103.05 11.30L103.05 11.30Q103.05 12.54 102.23 13.27L102.23 13.27L102.23 13.27Q101.42 14 100.03 14L100.03 14L96.77 14ZM97.58 13.06L97.58 13.06Q97.58 13.13 97.65 13.13L97.65 13.13L100.07 13.13L100.07 13.13Q100.98 13.13 101.52 12.60L101.52 12.60L101.52 12.60Q102.06 12.07 102.06 11.17L102.06 11.17L102.06 7.04L102.06 7.04Q102.06 6.13 101.53 5.60L101.53 5.60L101.53 5.60Q101.00 5.07 100.07 5.07L100.07 5.07L97.65 5.07L97.65 5.07Q97.58 5.07 97.58 5.14L97.58 5.14L97.58 13.06ZM107.80 13.26L107.80 13.26Q108.43 13.24 108.88 12.97L108.88 12.97L108.88 12.97Q109.34 12.70 109.59 12.21L109.59 12.21L109.59 12.21Q109.62 12.14 109.69 12.11L109.69 12.11L109.69 12.11Q109.76 12.08 109.83 12.12L109.83 12.12L110.24 12.35L110.24 12.35Q110.40 12.45 110.32 12.59L110.32 12.59L110.32 12.59Q109.98 13.29 109.31 13.70L109.31 13.70L109.31 13.70Q108.64 14.11 107.72 14.11L107.72 14.11L107.72 14.11Q106.74 14.11 106.06 13.65L106.06 13.65L106.06 13.65Q105.39 13.19 105.10 12.36L105.10 12.36L105.10 12.36Q104.83 11.66 104.83 10.43L104.83 10.43L104.83 10.43Q104.83 9.83 104.85 9.47L104.85 9.47L104.85 9.47Q104.87 9.11 104.96 8.81L104.96 8.81L104.96 8.81Q105.20 7.90 105.92 7.35L105.92 7.35L105.92 7.35Q106.64 6.80 107.66 6.80L107.66 6.80L107.66 6.80Q108.88 6.80 109.57 7.43L109.57 7.43L109.57 7.43Q110.26 8.06 110.46 9.21L110.46 9.21L110.46 9.21Q110.54 9.66 110.54 10.61L110.54 10.61L110.54 10.61Q110.54 10.79 110.36 10.79L110.36 10.79L105.88 10.79L105.88 10.79Q105.81 10.79 105.81 10.86L105.81 10.86L105.81 10.86Q105.81 11.56 105.90 11.89L105.90 11.89L105.90 11.89Q106.05 12.52 106.55 12.89L106.55 12.89L106.55 12.89Q107.04 13.26 107.80 13.26L107.80 13.26ZM107.66 7.67L107.66 7.67Q106.96 7.67 106.51 8.03L106.51 8.03L106.51 8.03Q106.06 8.39 105.92 8.99L105.92 8.99L105.92 8.99Q105.84 9.27 105.81 9.94L105.81 9.94L105.81 9.94Q105.81 10.01 105.88 10.01L105.88 10.01L109.48 10.01L109.48 10.01Q109.55 10.01 109.55 9.94L109.55 9.94L109.55 9.94Q109.52 9.32 109.47 9.04L109.47 9.04L109.47 9.04Q109.31 8.41 108.84 8.04L108.84 8.04L108.84 8.04Q108.37 7.67 107.66 7.67L107.66 7.67ZM114.84 14.07L114.84 14.07Q114.06 14.07 113.45 13.82L113.45 13.82L113.45 13.82Q112.84 13.57 112.51 13.15L112.51 13.15L112.51 13.15Q112.18 12.73 112.18 12.21L112.18 12.21L112.18 12.08L112.18 12.08Q112.18 11.90 112.36 11.90L112.36 11.90L112.97 11.90L112.97 11.90Q113.05 11.90 113.10 11.94L113.10 11.94L113.10 11.94Q113.15 11.97 113.15 12.03L113.15 12.03L113.15 12.15L113.15 12.15Q113.15 12.61 113.62 12.96L113.62 12.96L113.62 12.96Q114.10 13.30 114.83 13.30L114.83 13.30L114.83 13.30Q115.56 13.30 116.00 12.97L116.00 12.97L116.00 12.97Q116.45 12.64 116.45 12.14L116.45 12.14L116.45 12.14Q116.45 11.79 116.23 11.56L116.23 11.56L116.23 11.56Q116.00 11.34 115.68 11.21L115.68 11.21L115.68 11.21Q115.36 11.09 114.72 10.89L114.72 10.89L114.72 10.89Q113.93 10.67 113.43 10.44L113.43 10.44L113.43 10.44Q112.92 10.22 112.57 9.82L112.57 9.82L112.57 9.82Q112.22 9.42 112.22 8.81L112.22 8.81L112.22 8.81Q112.22 7.91 112.93 7.38L112.93 7.38L112.93 7.38Q113.64 6.85 114.79 6.85L114.79 6.85L114.79 6.85Q115.56 6.85 116.15 7.10L116.15 7.10L116.15 7.10Q116.75 7.35 117.07 7.79L117.07 7.79L117.07 7.79Q117.39 8.23 117.39 8.78L117.39 8.78L117.39 8.78Q117.39 8.96 117.21 8.96L117.21 8.96L116.63 8.96L116.63 8.96Q116.45 8.96 116.45 8.86L116.45 8.86L116.45 8.78L116.45 8.78Q116.45 8.30 116.00 7.98L116.00 7.98L116.00 7.98Q115.54 7.66 114.77 7.66L114.77 7.66L114.77 7.66Q114.06 7.66 113.62 7.95L113.62 7.95L113.62 7.95Q113.19 8.23 113.19 8.74L113.19 8.74L113.19 8.74Q113.19 9.21 113.60 9.46L113.60 9.46L113.60 9.46Q114.02 9.72 114.90 9.97L114.90 9.97L114.90 9.97Q115.71 10.19 116.21 10.40L116.21 10.40L116.21 10.40Q116.72 10.61 117.08 11.02L117.08 11.02L117.08 11.02Q117.45 11.42 117.45 12.07L117.45 12.07L117.45 12.07Q117.45 12.98 116.74 13.52L116.74 13.52L116.74 13.52Q116.03 14.07 114.84 14.07L114.84 14.07ZM119.87 5.64L119.87 5.64Q119.53 5.64 119.32 5.44L119.32 5.44L119.32 5.44Q119.11 5.24 119.11 4.91L119.11 4.91L119.11 4.91Q119.11 4.59 119.32 4.40L119.32 4.40L119.32 4.40Q119.53 4.20 119.87 4.20L119.87 4.20L119.87 4.20Q120.20 4.20 120.41 4.40L120.41 4.40L120.41 4.40Q120.62 4.59 120.62 4.91L120.62 4.91L120.62 4.91Q120.62 5.24 120.41 5.44L120.41 5.44L120.41 5.44Q120.20 5.64 119.87 5.64L119.87 5.64ZM119.56 14L119.56 14Q119.38 14 119.38 13.82L119.38 13.82L119.38 7.10L119.38 7.10Q119.38 6.92 119.56 6.92L119.56 6.92L120.19 6.92L120.19 6.92Q120.37 6.92 120.37 7.10L120.37 7.10L120.37 13.82L120.37 13.82Q120.37 14 120.19 14L120.19 14L119.56 14ZM127.06 7.10L127.06 7.10Q127.06 6.92 127.25 6.92L127.25 6.92L127.88 6.92L127.88 6.92Q128.06 6.92 128.06 7.10L128.06 7.10L128.06 13.76L128.06 13.76Q128.06 15.33 127.15 16.06L127.15 16.06L127.15 16.06Q126.24 16.79 124.67 16.79L124.67 16.79L124.67 16.79Q124.38 16.79 124.22 16.77L124.22 16.77L124.22 16.77Q124.04 16.76 124.04 16.58L124.04 16.58L124.07 16.02L124.07 16.02Q124.07 15.82 124.25 15.85L124.25 15.85L124.25 15.85Q125.73 15.92 126.40 15.41L126.40 15.41L126.40 15.41Q127.06 14.91 127.06 13.73L127.06 13.73L127.06 13.24L127.06 13.24Q127.06 13.20 127.04 13.19L127.04 13.19L127.04 13.19Q127.01 13.17 126.98 13.22L126.98 13.22L126.98 13.22Q126.34 14.04 125.16 14.04L125.16 14.04L125.16 14.04Q124.25 14.04 123.54 13.55L123.54 13.55L123.54 13.55Q122.84 13.06 122.60 12.17L122.60 12.17L122.60 12.17Q122.43 11.59 122.43 10.46L122.43 10.46L122.43 10.46Q122.43 9.84 122.46 9.42L122.46 9.42L122.46 9.42Q122.50 9.00 122.61 8.67L122.61 8.67L122.61 8.67Q122.86 7.83 123.52 7.31L123.52 7.31L123.52 7.31Q124.18 6.80 125.10 6.80L125.10 6.80L125.10 6.80Q126.32 6.80 126.98 7.60L126.98 7.60L126.98 7.60Q127.01 7.64 127.04 7.63L127.04 7.63L127.04 7.63Q127.06 7.62 127.06 7.57L127.06 7.57L127.06 7.10ZM126.99 11.86L126.99 11.86Q127.04 11.65 127.05 11.34L127.05 11.34L127.05 11.34Q127.06 11.03 127.06 10.44L127.06 10.44L127.06 10.44Q127.06 9.73 127.05 9.48L127.05 9.48L127.05 9.48Q127.04 9.24 126.98 9.03L126.98 9.03L126.98 9.03Q126.87 8.44 126.43 8.06L126.43 8.06L126.43 8.06Q125.99 7.67 125.31 7.67L125.31 7.67L125.31 7.67Q124.66 7.67 124.20 8.05L124.20 8.05L124.20 8.05Q123.75 8.43 123.56 9.03L123.56 9.03L123.56 9.03Q123.42 9.48 123.42 10.43L123.42 10.43L123.42 10.43Q123.42 11.45 123.56 11.84L123.56 11.84L123.56 11.84Q123.70 12.43 124.17 12.82L124.17 12.82L124.17 12.82Q124.64 13.20 125.31 13.20L125.31 13.20L125.31 13.20Q126 13.20 126.44 12.82L126.44 12.82L126.44 12.82Q126.88 12.45 126.99 11.86L126.99 11.86ZM133.13 6.82L133.13 6.82Q134.23 6.82 134.90 7.48L134.90 7.48L134.90 7.48Q135.56 8.13 135.56 9.24L135.56 9.24L135.56 13.82L135.56 13.82Q135.56 14 135.38 14L135.38 14L134.75 14L134.75 14Q134.57 14 134.57 13.82L134.57 13.82L134.57 9.44L134.57 9.44Q134.57 8.65 134.11 8.17L134.11 8.17L134.11 8.17Q133.64 7.69 132.90 7.69L132.90 7.69L132.90 7.69Q132.19 7.69 131.72 8.09L131.72 8.09L131.72 8.09Q131.25 8.50 131.18 9.16L131.18 9.16L131.18 13.82L131.18 13.82Q131.18 14 131.00 14L131.00 14L130.37 14L130.37 14Q130.19 14 130.19 13.82L130.19 13.82L130.19 7.10L130.19 7.10Q130.19 6.92 130.37 6.92L130.37 6.92L131.00 6.92L131.00 6.92Q131.18 6.92 131.18 7.10L131.18 7.10L131.18 7.62L131.18 7.62Q131.18 7.66 131.21 7.68L131.21 7.68L131.21 7.68Q131.24 7.70 131.25 7.66L131.25 7.66L131.25 7.66Q131.87 6.82 133.13 6.82L133.13 6.82Z"></path></g><!----><!----></svg>